<svg width="509" height="615" viewBox="0 0 509 615" fill="none" xmlns="http://www.w3.org/2000/svg">
<g opacity="0.8">
<g filter="url(#filter0_f_2_8)">
<path d="M-102.445 208.309C-102.445 321.927 -10.3402 414.032 103.277 414.032C216.895 414.032 309 321.927 309 208.309C309 94.6915 216.895 2.58636 103.277 2.58636C-10.3402 2.58636 -102.445 94.6915 -102.445 208.309Z" fill="url(#paint0_linear_2_8)"/>
</g>
<g filter="url(#filter1_f_2_8)">
<path d="M-118 128.529C-118 211.664 -50.6059 279.058 32.5288 279.058C115.664 279.058 183.058 211.664 183.058 128.529C183.058 45.394 115.664 -22 32.5288 -22C-50.6059 -22 -118 45.394 -118 128.529Z" fill="url(#paint1_linear_2_8)"/>
</g>
</g>
<defs>
<filter id="filter0_f_2_8" x="-302.445" y="-197.414" width="811.445" height="811.445" filterUnits="userSpaceOnUse" color-interpolation-filters="sRGB">
<feFlood flood-opacity="0" result="BackgroundImageFix"/>
<feBlend mode="normal" in="SourceGraphic" in2="BackgroundImageFix" result="shape"/>
<feGaussianBlur stdDeviation="100" result="effect1_foregroundBlur_2_8"/>
</filter>
<filter id="filter1_f_2_8" x="-218" y="-122" width="501.058" height="501.058" filterUnits="userSpaceOnUse" color-interpolation-filters="sRGB">
<feFlood flood-opacity="0" result="BackgroundImageFix"/>
<feBlend mode="normal" in="SourceGraphic" in2="BackgroundImageFix" result="shape"/>
<feGaussianBlur stdDeviation="50" result="effect1_foregroundBlur_2_8"/>
</filter>
<linearGradient id="paint0_linear_2_8" x1="103.277" y1="2.58636" x2="103.277" y2="414.032" gradientUnits="userSpaceOnUse">
<stop stop-color="#FF7BCA"/>
<stop offset="1" stop-color="#FFC56F" stop-opacity="0.46"/>
</linearGradient>
<linearGradient id="paint1_linear_2_8" x1="32.5288" y1="-22" x2="32.5288" y2="279.058" gradientUnits="userSpaceOnUse">
<stop stop-color="#F22FB0"/>
<stop offset="1" stop-color="#F58A25" stop-opacity="0"/>
<stop offset="1" stop-color="#7061A3"/>
</linearGradient>
</defs>
</svg>
